<svg id="圖層_1" data-name="圖層 1" xmlns="http://www.w3.org/2000/svg" viewBox="0 0 200 80"><defs><style>.cls-1{fill:#34d3c6;}</style></defs><title>logo</title><path class="cls-1" d="M15.27,38a27.69,27.69,0,0,0,.7-4,19.86,19.86,0,0,1,.83-4q.32-1,.67-2t.8-1.89q.45-1,.8-2c.23-.66.46-1.35.67-2.08a10.38,10.38,0,0,1,.77-1.86,5.88,5.88,0,0,1,.54-.89,3.55,3.55,0,0,0,.48-.89q.38-1,.83-2t.89-1.89q.9-1.92,1.7-3.84A31,31,0,0,1,26.85,7q.51-.89,1.12-1.79t1.18-1.79c.21-.3.4-.6.58-.9a10.48,10.48,0,0,1,.57-.9l.58-.77A1.1,1.1,0,0,1,31.2.57l.38-.19a.68.68,0,0,1,0,.48c-.06.11-.14.25-.22.42s-.34.58-.51.83a3.87,3.87,0,0,0-.45,1A5.59,5.59,0,0,1,30,4a5.17,5.17,0,0,1-.45.83,2.81,2.81,0,0,0-.38.9l-.25,1q-.13.48-.32,1-.77,2-1.53,3.93t-1.6,3.93a29.74,29.74,0,0,0-1.22,3.9q-.32,1.09-.64,2.08c-.21.66-.43,1.35-.64,2.08s-.45,1.35-.7,2-.49,1.33-.7,2a3.48,3.48,0,0,0-.22,1,5.67,5.67,0,0,1-.16,1c0,.34-.09.69-.13,1.06a8.65,8.65,0,0,1-.19,1.05q-.32,2.11-.83,4.19t-.89,4.19q-.19,1.09-.32,2.14c-.09.7-.17,1.42-.26,2.14s-.19,1.35-.32,2a4.3,4.3,0,0,0,.06,2c.08.34.16.68.22,1s.14.68.22,1a8,8,0,0,0,.29.93,8.2,8.2,0,0,1,.29.93,1.68,1.68,0,0,1,.06.8.65.65,0,0,1-.51.55l-.26.09a.48.48,0,0,0-.26.22,1.58,1.58,0,0,1-.51.71,5.36,5.36,0,0,1-.61.51.6.6,0,0,1-.73,0,4.77,4.77,0,0,0-.8-.54,3.5,3.5,0,0,1-.8-.61,4,4,0,0,1-.54-.67l-.48-.74c-.17-.26-.34-.49-.51-.7l-.58-.7a6.18,6.18,0,0,1-.89-1.66l-.64-1.79a15.75,15.75,0,0,0-.86-2q-.48-.93-.93-2c-.3-.64-.56-1.29-.8-1.95L7.92,39.7q-.32-1-.64-2t-.64-2l-1.53-4q-.38-1-.67-2t-.54-2q-.32-1-.58-2t-.57-2c-.26-.68-.5-1.34-.74-2a12,12,0,0,1-.54-2C1.34,19,1.2,18.26,1,17.57S.76,16.19.63,15.46.41,14,.34,13.32.18,11.91.06,11.18a1.09,1.09,0,0,1,0-.8,2.33,2.33,0,0,1,.54-.61,4.44,4.44,0,0,1,.8-.64c.28-.17.59-.34.93-.51s.47-.3.77-.51A.91.91,0,0,1,4,7.92a1.84,1.84,0,0,1,.35.16.79.79,0,0,0,.42.1,2.53,2.53,0,0,0,.38.1.57.57,0,0,1,.32.16,2,2,0,0,1,.48.77,7.19,7.19,0,0,0,.35.83l.57.93c.17.28.36.57.58.86a8.89,8.89,0,0,1,.8,1.85q.29,1,.61,1.92.77,2,1.37,4t1.12,4.09q.51,1.92,1,3.77a35.61,35.61,0,0,0,1.18,3.71c.09.3.17.59.26.86a5.77,5.77,0,0,1,.19.86,2.67,2.67,0,0,1,.06,1,3.54,3.54,0,0,1,0,.48,3.43,3.43,0,0,0,0,.48,4,4,0,0,0,.26.93,8,8,0,0,1,.32,1c0,.13.12.43.22.9s.27.7.48.7a.7.7,0,0,1,0-.23A.5.5,0,0,0,15.27,38Z"/><path class="cls-1" d="M47.57,32a.64.64,0,0,1,.22-.16.63.63,0,0,0,.22-.16,4.34,4.34,0,0,0-.19.58,2.61,2.61,0,0,1-.19.51q-.32.7-.51,1.25a9.37,9.37,0,0,1-.45,1.05,4.64,4.64,0,0,1-.38.74,4.6,4.6,0,0,0-.38.74c-.09.21-.15.39-.19.54a5.54,5.54,0,0,1-.19.54l-.57.77v.13a2.94,2.94,0,0,0-.48.76,4.3,4.3,0,0,1-.48.83,17.79,17.79,0,0,0-1.09,1.79.57.57,0,0,0-.16.29.56.56,0,0,1-.16.29l-.06.06a5.67,5.67,0,0,1-.29.61,5.06,5.06,0,0,1-.35.54,4,4,0,0,0-.45.38l-.38.38c-.09.09-.13.14-.13.16s0,.05-.06.1l-.06.06-.13.13-.13.13-.26.19-.54.32a4.21,4.21,0,0,0-.42.39.66.66,0,0,0-.19.13l-.19.12-.13.13-.06.07-.13.13a8.48,8.48,0,0,1-.73.57l-.8.51a2.75,2.75,0,0,1-.64.51,9.7,9.7,0,0,1-1,.32,4.15,4.15,0,0,1-1,.13,5.13,5.13,0,0,1-1.57-.25q-.8-.26-1.5-.51h-.19a1.15,1.15,0,0,0-.32-.22l-.38-.22a4,4,0,0,1-.57-.45l-.42-.26L29,46.41a1.83,1.83,0,0,1-.35-.32,1.74,1.74,0,0,0-.35-.32l-.7-.7-.26-.29a.35.35,0,0,0-.25-.16,2.65,2.65,0,0,1-.26-.38l-.22-.45-.22-.45c-.13-.21-.25-.43-.38-.67l-.38-.73a11.83,11.83,0,0,1-1.31-3.74,16.82,16.82,0,0,1-.22-4,11.42,11.42,0,0,1,.32-2.11q.26-1,.57-2a8,8,0,0,1,2-3.33,3.86,3.86,0,0,0,.54-.67,3.94,3.94,0,0,1,.54-.67,6.78,6.78,0,0,1,1.34-.83c.34-.13.66-.23,1-.32s.62-.19,1-.32l.83-.25a1.59,1.59,0,0,1,.9,0,4.39,4.39,0,0,1,.86.35,4.16,4.16,0,0,0,.86.35,3.66,3.66,0,0,1,1.21.89,3.93,3.93,0,0,1,.83,1.44,11,11,0,0,1,.38,1.63,5.63,5.63,0,0,1,0,1,3.55,3.55,0,0,1-.22,1l-.58,1.73a17.7,17.7,0,0,1-.74,1.76,5.67,5.67,0,0,1-1.12,1.57c-.26.26-.5.52-.74.8s-.48.54-.74.8a2.39,2.39,0,0,1-.29.35,2.17,2.17,0,0,0-.29.35,3,3,0,0,0-.19.32.61.61,0,0,0,.06.45l.35,1a3.64,3.64,0,0,0,.48.9,3.71,3.71,0,0,0,.64,1v.13a5.46,5.46,0,0,0,.32.58,1.5,1.5,0,0,0,.64.7.37.37,0,0,0,.13.26,1.47,1.47,0,0,0,2,.32H37a3.26,3.26,0,0,0,2.11-1.22c.08-.09.17-.18.26-.29s.17-.22.26-.35a6.66,6.66,0,0,0,1.85-1.79.38.38,0,0,0,.32-.19A2.58,2.58,0,0,1,42,38.9a2.62,2.62,0,0,0,.29-.54,3,3,0,0,0,1-1.09c.26-.47.49-.87.7-1.21a.52.52,0,0,0,.06-.32,1,1,0,0,0,.19-.26l.26-.13a1,1,0,0,0,.32-.35.7.7,0,0,1,.25-.29l.26-.09q.13,0,.32-.35l.32-.54a1.05,1.05,0,0,1,.32-.35,2.49,2.49,0,0,0,.38-.32l.32-.32a1.84,1.84,0,0,0,.26-.35A1,1,0,0,1,47.57,32ZM31.32,35.48a5.72,5.72,0,0,1,.83-1.31A5.69,5.69,0,0,0,33,32.86a5,5,0,0,0,.45-1.31c.09-.45.17-.9.26-1.38s.16-1,.22-1.5a3.93,3.93,0,0,0-.1-1.5,3.6,3.6,0,0,0-.45-1,1.06,1.06,0,0,0-1-.51,1.12,1.12,0,0,0-.58.32l-.45.45a2.66,2.66,0,0,1-.42.54,2.89,2.89,0,0,0-.42.54,5.12,5.12,0,0,0-.9,2.56,6.29,6.29,0,0,0,.16,1.4,11.54,11.54,0,0,0,.42,1.41c.08.26.17.5.26.74s.17.48.25.73a3.48,3.48,0,0,1,.22.57,3.42,3.42,0,0,0,.22.58l.06.06Z"/><path class="cls-1" d="M69.11,32c.08,0,.26-.15.51-.32l-.22.58-.22.57A7.25,7.25,0,0,0,68.7,34a6.49,6.49,0,0,1-.42,1.05l-.42.74c-.11.19-.22.44-.35.74a1,1,0,0,0-.16.38,1,1,0,0,1-.16.39v.06c-.13.13-.17.19-.13.19a.36.36,0,0,0-.13.26,1,1,0,0,0-.19.26.78.78,0,0,1-.1.16.75.75,0,0,0-.09.16l-.06.06a1.45,1.45,0,0,0-.26.38l-.35.48-.35.48a1,1,0,0,0-.16.38,1,1,0,0,1-.16.38.62.62,0,0,0-.16.22.62.62,0,0,1-.16.22,13.71,13.71,0,0,1-1.09,1.54c-.38.47-.75,1-1.09,1.47a4.54,4.54,0,0,0-.32.64,2.53,2.53,0,0,1-.38.64q-.45.58-.86,1.18l-.86,1.25a12.08,12.08,0,0,1,0,1.5,10.47,10.47,0,0,0,0,1.44,8.36,8.36,0,0,1-.06,1,8.14,8.14,0,0,0-.06,1c0,.72-.09,1.42-.13,2.11S60,56.24,60,57A4.23,4.23,0,0,0,60,58a4.52,4.52,0,0,1,0,1.05c0,.34-.08.68-.1,1s-.05.68-.1,1v.54a1.51,1.51,0,0,1-.13.54,4.78,4.78,0,0,0-.06.9.88.88,0,0,0,0,.48,1.76,1.76,0,0,1,.06.48,3.35,3.35,0,0,1,0,.48,3.18,3.18,0,0,0,0,.48,7.47,7.47,0,0,0-.06,1,3.3,3.3,0,0,1-.13.9,3.92,3.92,0,0,1-.83,1.47,3.14,3.14,0,0,1-1.34,1,3.21,3.21,0,0,1-1.66.19,3.5,3.5,0,0,0-.77.13A13.61,13.61,0,0,1,53,68.89a5.69,5.69,0,0,0-1.86-.54,6.65,6.65,0,0,0-1.21-1.28,3.32,3.32,0,0,0-.42-.35l-.42-.29-.42-.26a1.61,1.61,0,0,1-.35-.26c-.21-.21-.43-.45-.64-.7a5.73,5.73,0,0,1-.58-.83,8.15,8.15,0,0,1-.54-.86c-.15-.28-.31-.57-.48-.87s-.31-.57-.42-.8a1,1,0,0,1,.1-.86,18.33,18.33,0,0,0,.93-1.85,18.53,18.53,0,0,1,.93-1.85,7.46,7.46,0,0,0,.45-.93,3.22,3.22,0,0,1,.51-.86q.32-.32.58-.64l.51-.64c.47-.55.92-1.07,1.34-1.53s.87-1,1.34-1.53a1.33,1.33,0,0,0,.22-.32.74.74,0,0,1,.35-.32c.26-.17.53-.34.83-.51a3.66,3.66,0,0,0,.57-.57,1.64,1.64,0,0,0,.26-.77c0-.3,0-.71.06-1.25s.07-1.09.09-1.66,0-1.13.06-1.66,0-1,0-1.31a8.55,8.55,0,0,0-.93.29c-.28.11-.57.2-.86.29a4,4,0,0,0-.9.26,1.14,1.14,0,0,0-.32.16,1.1,1.1,0,0,1-.32.16,1.13,1.13,0,0,1-.83-.06l-.77-.32q-.83-.38-1.6-.7a6.17,6.17,0,0,1-.77-.39,3.23,3.23,0,0,1-.64-.51,6.1,6.1,0,0,1-1-1.28A8.52,8.52,0,0,1,45,39.19a6,6,0,0,1-.48-1.66,12.61,12.61,0,0,1-.06-3.36A7.68,7.68,0,0,1,45.58,31a8.76,8.76,0,0,1,2.21-2.46,19.49,19.49,0,0,1,2.78-1.76,8.42,8.42,0,0,1,.9-.45,1.81,1.81,0,0,1,1-.13,3,3,0,0,1,1.47.83,1.8,1.8,0,0,1,.45.7,1.34,1.34,0,0,0,.45.64,4.3,4.3,0,0,0,.64.32l.16.06s.07-.06.16-.19a1,1,0,0,0,.13-.45,1.62,1.62,0,0,0,.16-.48,1.54,1.54,0,0,1,.16-.48l.38-.77a3.38,3.38,0,0,1,.32-.61.65.65,0,0,1,.58-.29,2.32,2.32,0,0,1,.8.32l.74.45q.38.26.7.51a1.87,1.87,0,0,1,.51.64,4.55,4.55,0,0,1,.26,1l.13,1a7.89,7.89,0,0,1,.06,1,3.89,3.89,0,0,0,.13,1,7.25,7.25,0,0,1,.22,2c0,.64-.08,1.3-.16,2a57.57,57.57,0,0,0-.58,8.18l.58-.58a3,3,0,0,0,.45-.57,4.88,4.88,0,0,0,.32-.64,2.74,2.74,0,0,1,.45-.7,18.51,18.51,0,0,0,1.34-1.72c.51-.73.94-1.34,1.28-1.85a6.89,6.89,0,0,0,.83-1.34.29.29,0,0,0,.06-.32.46.46,0,0,1,.13-.09.35.35,0,0,0,.13-.16s.11,0,.19-.13a1.41,1.41,0,0,0,.35-.35.92.92,0,0,1,.29-.29l.26-.09c.08,0,.19-.14.32-.35s.17-.33.26-.48a.88.88,0,0,1,.38-.35,1.85,1.85,0,0,0,.38-.35l.32-.35a2.23,2.23,0,0,0,.26-.32ZM55.43,33.56c0,.47-.05.65,0,.54a5.39,5.39,0,0,0,.06-.58c0-.27.05-.56.1-.86s0-.38,0-.26a.62.62,0,0,0-.06-.61,1.55,1.55,0,0,0-.51-.48,1.12,1.12,0,0,0-.35-.22.57.57,0,0,0-.42,0l-.29.16-.29.16a3.82,3.82,0,0,0-1.25.8,5.22,5.22,0,0,0-.86,1.18,10.41,10.41,0,0,1-.89,1.57A3.7,3.7,0,0,0,50,36.57q-.13.89-.19,1.85a8.85,8.85,0,0,0,.06,1.86c.09.3.17.57.26.83a1.23,1.23,0,0,0,.51.64,1.12,1.12,0,0,0,.7.16,2.28,2.28,0,0,0,.7-.16,1.78,1.78,0,0,0,.7-.45,7.1,7.1,0,0,1,.64-.57l.64-.61c.21-.19.42-.39.64-.61a1.45,1.45,0,0,0,.32-.83,7.24,7.24,0,0,1,.06-.89c0-.3,0-.58,0-.86s.05-.56.1-.86a10.49,10.49,0,0,0,.13-1.25A10,10,0,0,1,55.43,33.56Zm-.9,20.65a2.52,2.52,0,0,1,.22-.64,1,1,0,0,0,.1-.64,5.16,5.16,0,0,1-1.12,1,1.83,1.83,0,0,0-.8,1.15,1.24,1.24,0,0,1-.38.7,2.73,2.73,0,0,1-.42.22.76.76,0,0,0-.35.29,1.24,1.24,0,0,0-.35.83,1.13,1.13,0,0,1-.42.83.93.93,0,0,0-.29.42l-.09.48a1.64,1.64,0,0,1-.1.58l-.22.57a6.57,6.57,0,0,0-.38,1.09,1.85,1.85,0,0,0,.13,1.15c.09.17.17.33.26.48s.17.31.26.48a1.4,1.4,0,0,0,.45.26,2.85,2.85,0,0,1,.51.26,7.53,7.53,0,0,1,1.92,1.47,1.05,1.05,0,0,0,.19-.77,1.39,1.39,0,0,1,0-.51,4.17,4.17,0,0,0,0-.51c0-.42.08-.84.13-1.24l.13-1.25q.06-.64.1-1.21a8.32,8.32,0,0,1,.16-1.22l.26-1.05a4.66,4.66,0,0,0,.13-1.06V55a2.34,2.34,0,0,0,0-.38A.8.8,0,0,1,54.53,54.21Z"/><path class="cls-1" d="M89.89,32a.66.66,0,0,1,.23-.16.63.63,0,0,0,.22-.16,4.22,4.22,0,0,0-.19.58,2.61,2.61,0,0,1-.19.51c-.21.47-.38.88-.51,1.25A8.56,8.56,0,0,1,89,35.09a4.33,4.33,0,0,1-.38.74,4.51,4.51,0,0,0-.38.74,5.14,5.14,0,0,0-.19.54c0,.15-.11.33-.19.54l-.58.77v.13a3,3,0,0,0-.48.76,4.44,4.44,0,0,1-.48.83,18.3,18.3,0,0,0-1.09,1.79.55.55,0,0,0-.16.29.57.57,0,0,1-.16.29l-.06.06a5.67,5.67,0,0,1-.29.61,4.93,4.93,0,0,1-.35.54,4.06,4.06,0,0,0-.45.38l-.38.38c-.09.09-.13.14-.13.16s0,.05-.06.1l-.06.06-.13.13-.13.13-.26.19-.55.32a4.46,4.46,0,0,0-.41.39.64.64,0,0,0-.19.13l-.19.12-.13.13-.06.07-.13.13a8.48,8.48,0,0,1-.73.57l-.8.51a2.73,2.73,0,0,1-.64.51,9.73,9.73,0,0,1-1,.32,4.16,4.16,0,0,1-1,.13,5.12,5.12,0,0,1-1.57-.25q-.8-.26-1.5-.51h-.19a1.14,1.14,0,0,0-.32-.22l-.38-.22a3.94,3.94,0,0,1-.58-.45l-.42-.26-.48-.25a1.81,1.81,0,0,1-.35-.32,1.76,1.76,0,0,0-.35-.32l-.7-.7-.26-.29a.35.35,0,0,0-.26-.16,2.64,2.64,0,0,1-.25-.38l-.22-.45-.22-.45c-.13-.21-.26-.43-.38-.67s-.26-.48-.38-.73a11.83,11.83,0,0,1-1.31-3.74,16.81,16.81,0,0,1-.22-4,11.41,11.41,0,0,1,.32-2.11q.26-1,.57-2a8,8,0,0,1,2-3.33,3.93,3.93,0,0,0,.54-.67,4,4,0,0,1,.54-.67,6.86,6.86,0,0,1,1.34-.83c.34-.13.66-.23,1-.32s.62-.19,1-.32l.83-.25a1.6,1.6,0,0,1,.9,0,4.34,4.34,0,0,1,.86.35,4.2,4.2,0,0,0,.86.35,3.66,3.66,0,0,1,1.21.89,3.92,3.92,0,0,1,.83,1.44,11,11,0,0,1,.38,1.63,5.51,5.51,0,0,1,0,1,3.52,3.52,0,0,1-.22,1l-.58,1.73A17.54,17.54,0,0,1,78,33.85a5.67,5.67,0,0,1-1.12,1.57c-.26.26-.5.52-.73.8s-.48.54-.74.8a2.37,2.37,0,0,1-.29.35,2.2,2.2,0,0,0-.29.35,3.06,3.06,0,0,0-.19.32.6.6,0,0,0,.06.45l.35,1a3.55,3.55,0,0,0,.48.9,3.68,3.68,0,0,0,.64,1v.13a5.8,5.8,0,0,0,.32.58,1.49,1.49,0,0,0,.64.7.36.36,0,0,0,.13.26,1.46,1.46,0,0,0,2,.32h.06a3.26,3.26,0,0,0,2.11-1.22l.26-.29c.08-.11.17-.22.26-.35a6.64,6.64,0,0,0,1.85-1.79.37.37,0,0,0,.32-.19,2.64,2.64,0,0,1,.29-.54,2.62,2.62,0,0,0,.29-.54,3,3,0,0,0,1-1.09c.26-.47.49-.87.71-1.21a.5.5,0,0,0,.07-.32,1.09,1.09,0,0,0,.19-.26l.26-.13a1.06,1.06,0,0,0,.32-.35.69.69,0,0,1,.26-.29,1.38,1.38,0,0,1,.25-.09c.08,0,.19-.14.32-.35l.32-.54a1,1,0,0,1,.32-.35A2.3,2.3,0,0,0,89,33l.32-.32a1.84,1.84,0,0,0,.26-.35A1,1,0,0,1,89.89,32ZM73.65,35.48a5.66,5.66,0,0,1,.83-1.31,5.69,5.69,0,0,0,.83-1.31,5,5,0,0,0,.45-1.31L76,30.17q.13-.7.22-1.5a3.9,3.9,0,0,0-.1-1.5,3.57,3.57,0,0,0-.45-1,1.06,1.06,0,0,0-1-.51,1.11,1.11,0,0,0-.57.32l-.45.45a2.71,2.71,0,0,1-.42.54,2.84,2.84,0,0,0-.42.54A5.13,5.13,0,0,0,72,30a6.25,6.25,0,0,0,.16,1.4,11.38,11.38,0,0,0,.42,1.41c.09.26.17.5.26.74l.26.73a3.81,3.81,0,0,1,.22.57,3.41,3.41,0,0,0,.22.58l.06.06Z"/><path class="cls-1" d="M114.38,32a5.78,5.78,0,0,0,.51-.32l-.22.58c-.06.17-.14.36-.22.57A7.12,7.12,0,0,0,114,34a6.41,6.41,0,0,1-.42,1.05.57.57,0,0,0-.16.26.58.58,0,0,1-.16.25h.06l-.57,1.15-.13.26-.26.38a4.14,4.14,0,0,0-.25.45.75.75,0,0,0-.45.38,6.84,6.84,0,0,1-.45.86c-.17.28-.36.57-.58.86l-.61.64a1.84,1.84,0,0,0-.41.83v.32a9.09,9.09,0,0,0-1.18,2q-.48,1.09-1,2.11a18,18,0,0,1-.83,1.69l-1,1.69a1.8,1.8,0,0,1-.12.22.37.37,0,0,0-.07.22h-.06l-.39.77a4.58,4.58,0,0,1-.42.48l-.41.42a2.26,2.26,0,0,0-.51.83l-.45-.09-.45-.1v-.26l-.8-.25a5.64,5.64,0,0,1-.8-.32,3.51,3.51,0,0,1-.93-.51,2.48,2.48,0,0,0-.93-.45,3.63,3.63,0,0,0-.64-.2.59.59,0,0,1-.45-.45.79.79,0,0,0,.25-.57,18.4,18.4,0,0,0-.22-2.88q-.23-1.41-.35-2.88A.37.37,0,0,0,98,43a2.59,2.59,0,0,0-.13-2.11s-.06-.13-.19-.26c0-.21.07-.4.1-.57a4.51,4.51,0,0,0,0-.51c0-.34,0-.67,0-1s-.05-.65-.1-1c0-.68-.09-1.36-.13-2s-.09-1.36-.13-2a6.23,6.23,0,0,1-.07-.93,2.67,2.67,0,0,0-.13-.86.59.59,0,0,0-.45-.39,1.11,1.11,0,0,0-.64.06,4.64,4.64,0,0,0-1.66.8q-.71.54-1.41,1.18a2.59,2.59,0,0,0-.54.58,1,1,0,0,0,0,.77c.08.34.15.66.19,1a3.58,3.58,0,0,1,0,1c0,.72-.05,1.42,0,2.08s0,1.35,0,2.08v2.11a17,17,0,0,1-.13,2c0,.34-.09.69-.13,1.05s-.09.72-.13,1.06a5.36,5.36,0,0,0-.06,1,2,2,0,0,1-.13.83,1.68,1.68,0,0,1-.54.54,1.28,1.28,0,0,1-.67.22.29.29,0,0,0-.32.06c-.08.09-.19.09-.32,0a.39.39,0,0,1-.19-.22.85.85,0,0,0-.19-.29,1.58,1.58,0,0,0-.7-.39.6.6,0,0,0-.35,0,.39.39,0,0,1-.35-.1l-.32-.29a1.64,1.64,0,0,1-.32-.35l-.26-.26a.44.44,0,0,0-.32-.13.5.5,0,0,0-.35,0,.36.36,0,0,1-.35-.06,1.1,1.1,0,0,1-.22-.32,1.22,1.22,0,0,0-.23-.32A4.36,4.36,0,0,1,86,46c0-.28-.05-.57-.1-.86a3.4,3.4,0,0,1,0-1.05c.06-.36.12-.71.16-1.05a2,2,0,0,0,.06-.48,2,2,0,0,1,.07-.48c0-.09,0-.24,0-.48s0-.31-.16-.23a5.81,5.81,0,0,0,.16-1.05c0-.36.05-.71.1-1.06a3,3,0,0,0,.06-.58V38.1c0-.26,0-.4.07-.45a.51.51,0,0,0,.06-.32l.19-1.92c0-.34,0-.68,0-1s0-.68,0-1,0-.67,0-1,0-.65,0-1a44,44,0,0,1,.77-8.25c.09-.34.16-.67.22-1a3,3,0,0,0,0-1,5.59,5.59,0,0,1,.06-1.92,3.31,3.31,0,0,0,.1-1,3.23,3.23,0,0,1,.1-1c0-.34.08-.66.13-1a9.54,9.54,0,0,1,.19-1q.13-1,.26-1.95a10.42,10.42,0,0,1,.45-1.95,2.3,2.3,0,0,0,.13-.32.38.38,0,0,1,.26-.26.42.42,0,0,0,.19-.26,2.35,2.35,0,0,1,.13-.32c.17-.21.33-.43.48-.64a5,5,0,0,1,.54-.64c.21-.21.45-.43.7-.64a2.31,2.31,0,0,1,.83-.45,2.62,2.62,0,0,1,.8-.25,6.63,6.63,0,0,0,.86-.19,3.25,3.25,0,0,1,.93-.09,2.11,2.11,0,0,1,.86.35,3.24,3.24,0,0,1,1,1.15A4.65,4.65,0,0,1,97,10.67a9.84,9.84,0,0,1-.19,1.92c-.09.34-.17.66-.25,1a3,3,0,0,1-.45.9,8,8,0,0,0-.48.67c-.15.23-.31.48-.48.74-.26.55-.52,1.1-.8,1.63s-.57,1.05-.86,1.57a4.07,4.07,0,0,1-.51.83,2.22,2.22,0,0,1-.26.32,2.08,2.08,0,0,0-.25.32,2.52,2.52,0,0,0-.1.9,3.52,3.52,0,0,1,0,.83,3,3,0,0,0-.06.57,1.63,1.63,0,0,1-.13.58,2.18,2.18,0,0,0,.06.89c0,.34,0,.66,0,1s.05.6.09.9a19,19,0,0,1,.16,1.95c0,.66.05,1.31.1,2,.21-.17.43-.35.64-.54a6,6,0,0,1,.7-.54,1.09,1.09,0,0,1,.35-.22,1.17,1.17,0,0,0,.35-.22,3.68,3.68,0,0,1,.51-.45q.38-.19.8-.35c.28-.11.57-.2.86-.29a3.49,3.49,0,0,0,.48,0,1.26,1.26,0,0,1,.48,0l.35.13.35.13a1.74,1.74,0,0,0,.48-.06.93.93,0,0,1,.48,0,1.37,1.37,0,0,1,.77.26,3.1,3.1,0,0,1,.7.48c.21.19.43.39.64.61A7.39,7.39,0,0,1,103,32.34c.13.68.23,1.36.32,2l.25,2c0,.34.08.68.1,1s.05.68.1,1,.1.43.16.64a2.27,2.27,0,0,1,.09.64A.8.8,0,0,1,104,40a.35.35,0,0,0,0,.29.82.82,0,0,0,.16.22.8.8,0,0,1,.16.23.5.5,0,0,1,0,.35.52.52,0,0,0,0,.35l.13.38a1.41,1.41,0,0,1,.07.45c0,.34,0,.75.06,1.22a7.69,7.69,0,0,0,.19,1.22.77.77,0,0,0,0,.22.67.67,0,0,1,0,.22l.32-.54a4.69,4.69,0,0,1,.39-.54,5.91,5.91,0,0,0,.83-1.28.52.52,0,0,0,.06-.22.35.35,0,0,1,.13-.22,1.61,1.61,0,0,1,.29-.22.93.93,0,0,0,.29-.29.54.54,0,0,0,.16-.29.57.57,0,0,1,.16-.29l.35-.29a2.34,2.34,0,0,0,.16-.42.46.46,0,0,1,.16-.25,1.41,1.41,0,0,0,.22-.2,4,4,0,0,0,.42-.8,2.67,2.67,0,0,1,.42-.73c.17-.21.33-.43.48-.64s.31-.43.48-.64l.06-.06a.39.39,0,0,1,.09-.19.38.38,0,0,0,.1-.19s.06-.07.06-.1,0-.05.06-.1a.06.06,0,0,1,.06-.06l.19-.38s.06-.08.06-.1,0-.05.07-.1v-.26l.25-.26s.11,0,.19-.13a1.4,1.4,0,0,0,.35-.35.9.9,0,0,1,.29-.29l.26-.09c.09,0,.17-.14.26-.35a3.76,3.76,0,0,0,.32-.48,1.11,1.11,0,0,1,.32-.35,1.37,1.37,0,0,0,.45-.35c.13-.15.23-.27.32-.35a1.37,1.37,0,0,0,.22-.32A1.46,1.46,0,0,1,114.38,32ZM92.7,15.91c0,.13,0,.3,0,.51s0,.34.09.38a4.09,4.09,0,0,0,.45-.9l.42-1.09L94,13.74a5.92,5.92,0,0,0,.57-2.11c0-.3.09-.63.16-1a1.47,1.47,0,0,0-.09-.93c-.17-.34-.39-.47-.64-.38a.46.46,0,0,0-.35.19c-.11.13-.21.23-.29.32a2.28,2.28,0,0,0-.45.8,5.29,5.29,0,0,0-.2.93,6.17,6.17,0,0,0,0,1.09c0,.38,0,.75,0,1.09s0,.76,0,1.12S92.7,15.57,92.7,15.91Z"/><path class="cls-1" d="M134.33,31.58h.06a5.89,5.89,0,0,1-.54,1.25c-.24.4-.48.8-.74,1.18a5.52,5.52,0,0,1-.93.86,9,9,0,0,0-1,.86,2,2,0,0,1-.51.39l-.57.32a5.08,5.08,0,0,1-1,.48,4.76,4.76,0,0,1-1.09.22l-.64.13a3.16,3.16,0,0,1-.64.07,2.78,2.78,0,0,0,0,.45,2.55,2.55,0,0,1,0,.38v.9a5.4,5.4,0,0,0,.06.86,2,2,0,0,1-.06.86l-.13.77c0,.25-.09.51-.13.77l-.13.76a5.24,5.24,0,0,1-.19.77,1.26,1.26,0,0,1-.26.64.65.65,0,0,0-.13.35.68.68,0,0,1-.13.35,10.43,10.43,0,0,1-.9,1.85l-.51.77a4.7,4.7,0,0,1-.58.7,4.53,4.53,0,0,1-1.66,1.15c-.64.26-1.28.49-1.92.7s-1.21.4-1.85.57a3.89,3.89,0,0,1-2,0,2.8,2.8,0,0,1-.9-.38,4.42,4.42,0,0,0-.89-.45,5.81,5.81,0,0,0-.8-.45,3.47,3.47,0,0,1-.8-.51,10.68,10.68,0,0,1-1.34-1.31,5,5,0,0,1-1-1.63q-.13-.44-.25-1.09-.13-.38-.32-.83a8.23,8.23,0,0,1-.19-1c0-.34-.08-.68-.13-1-.08-.73-.16-1.44-.22-2.14a8.16,8.16,0,0,1,.09-2.14l.39-2.11a.91.91,0,0,0,0-.42,3.23,3.23,0,0,1,0-.48,2,2,0,0,0,.06-.48,1.83,1.83,0,0,1,.07-.48,7.38,7.38,0,0,1,.61-1.82,12.58,12.58,0,0,1,1-1.69q.51-.77,1-1.6a3.64,3.64,0,0,1,1.37-1.34,2.68,2.68,0,0,1,.42-.22,2.62,2.62,0,0,0,.42-.22,6.34,6.34,0,0,0,.64-.58,4.29,4.29,0,0,1,.77-.32.51.51,0,0,1,.32,0,.53.53,0,0,0,.39-.1c.34-.09.66-.18,1-.29a4.49,4.49,0,0,1,1-.22,5.48,5.48,0,0,1,1,.06,1.18,1.18,0,0,0,.38-.06.59.59,0,0,1,.39,0,1.09,1.09,0,0,1,.42.19l.35.26.77.38a3.1,3.1,0,0,1,.7.48c.21.19.43.39.64.61a16,16,0,0,1,2.3,3.2,4.83,4.83,0,0,1,.29.93c.06.32.14.65.22,1s.08.39.1.55.05.33.1.54.07.52.1.8,0,.56,0,.86c.25,0,.5,0,.73,0a1.44,1.44,0,0,0,.67-.09,5.47,5.47,0,0,1,.74-.19,3.51,3.51,0,0,0,.67-.19,1.44,1.44,0,0,0,.7-.41,4.59,4.59,0,0,1,.58-.54l.48-.48c.24-.23.39-.35.48-.35a.94.94,0,0,0,.38-.13,1.4,1.4,0,0,0,.19-.22l.13-.22.13-.13s.11-.06.19-.19c.08,0,.23,0,.45-.06a1.18,1.18,0,0,0,.51-.38A.55.55,0,0,1,134.33,31.58Zm-10.49,7.86a6.5,6.5,0,0,0,.22-.67,1.69,1.69,0,0,0,0-.74,1.27,1.27,0,0,1-.06-.42,1.89,1.89,0,0,0-.07-.48,1.06,1.06,0,0,1-.45-.07,8.44,8.44,0,0,1-1-.32,11,11,0,0,1-1-.45,2.92,2.92,0,0,1-.7-.45,6,6,0,0,1-1.6-1,4,4,0,0,1-.83-1,4.16,4.16,0,0,0-.83-1,1.45,1.45,0,0,0-.19.77,6.4,6.4,0,0,1-.06.89,6.27,6.27,0,0,0-.06.9,7.58,7.58,0,0,1-.06,1c0,.6,0,1.17.06,1.73s.11,1.13.19,1.73c0,.34.08.66.1,1s0,.62,0,1,0,.51,0,.77,0,.53,0,.83a5.41,5.41,0,0,0-.06,1,2.38,2.38,0,0,1,0,.38,1.74,1.74,0,0,0,0,.32,1.54,1.54,0,0,0,.16.7c.11.22.2.43.29.64s.24.42.35.64a1.2,1.2,0,0,0,.48.51,5.47,5.47,0,0,1,.54.32.51.51,0,0,0,.54.06,4.34,4.34,0,0,0,2.49-2.18,12.23,12.23,0,0,0,1.09-3.2,12.94,12.94,0,0,0,.19-1.34c0-.47.11-.94.19-1.41a.42.42,0,0,1,0-.19A.47.47,0,0,0,123.84,39.44Zm-4.28-10.29a.55.55,0,0,0-.19.38,2.54,2.54,0,0,0-.19.51.53.53,0,0,0,.06.45,1.45,1.45,0,0,0,.26.38,1.41,1.41,0,0,1,.26.45,2.6,2.6,0,0,0,.51.7l.64.64a2.53,2.53,0,0,0,.83.64l.35.26a1.15,1.15,0,0,0,.35.19,3.76,3.76,0,0,1,.73.32c.32.17.46.15.42-.06a7.19,7.19,0,0,0-.57-2.37A6.61,6.61,0,0,0,121.92,30a2.58,2.58,0,0,0-1.21-1,1,1,0,0,0-.61-.06A1,1,0,0,0,119.56,29.15Z"/><path class="cls-1" d="M150.19,32a.58.58,0,0,1,.26-.16.57.57,0,0,0,.25-.16l-.22.58a5.06,5.06,0,0,1-.23.51,9.59,9.59,0,0,0-.48,1.25,6.56,6.56,0,0,1-.41,1.05l-.42.74a8,8,0,0,0-.35.74,8.42,8.42,0,0,0-.45,1.09l-.57.77v.13a3,3,0,0,0-.48.76,4.27,4.27,0,0,1-.48.83A17.74,17.74,0,0,0,145.52,42a1.36,1.36,0,0,0-.25.51s-.06,0-.06,0,0,0-.06,0a4.61,4.61,0,0,1-.64,1.15,2.49,2.49,0,0,0-.57.89,4,4,0,0,1-.51,1q-.32.64-.67,1.25a6.94,6.94,0,0,1-.8,1.12,3.12,3.12,0,0,1-2.24,1.15,3.52,3.52,0,0,1-2.37-.77.9.9,0,0,0-.19-.16.82.82,0,0,1-.19-.16,1.65,1.65,0,0,0-.76-.77.06.06,0,0,0-.07-.06,5.34,5.34,0,0,0-.73-1.12,3.38,3.38,0,0,1-.61-1.12c-.13-.3-.25-.59-.35-.86s-.2-.57-.29-.86a2,2,0,0,0-.13-.57,6.29,6.29,0,0,1-.32-.7l-.38-1a9.31,9.31,0,0,0-.45-1.28l-.13-.38v-.13a1.35,1.35,0,0,0-.07-.45q-.13-.83-.32-1.63c-.13-.53-.23-1.1-.32-1.69s-.09-1.08-.13-1.44-.13-.84-.25-1.44l-.07-.51v-.19a12.68,12.68,0,0,0,.13-1.82,6.58,6.58,0,0,0-.26-1.82c0-.25,0-.52,0-.8s0-.54,0-.8v-1a8.41,8.41,0,0,1,.06-1q.07-1.09.16-2.11c.07-.68.16-1.39.29-2.11,0-.43.07-.85.1-1.28s.05-.85.09-1.28a2.47,2.47,0,0,0,.26-.7,4.62,4.62,0,0,1,.61-2,13.62,13.62,0,0,0,.93-2,1,1,0,0,1,.19-.26,5.09,5.09,0,0,1,.7-.8l.77-.67.77-.64a1.36,1.36,0,0,1,.89-.32h1a2.21,2.21,0,0,1,1,.26,2.9,2.9,0,0,1,1.15,1.21,14.93,14.93,0,0,1,1,1.85,5.89,5.89,0,0,1,.16,1c0,.32,0,.65,0,1,0,.72-.09,1.44-.13,2.14a18.65,18.65,0,0,1-.25,2.14c-.09.68-.2,1.36-.35,2s-.31,1.34-.48,2-.44,1.35-.67,2-.46,1.31-.67,2-.45,1.34-.7,2-.49,1.28-.7,1.92c-.13.34-.26.69-.39,1.05s-.23.71-.32,1.06a3.48,3.48,0,0,0,0,1.85c.09.68.16,1.18.23,1.5s.2.82.41,1.5.42,1.27.61,1.89a9.16,9.16,0,0,0,.8,1.82c.17.34.34.66.51,1a2.23,2.23,0,0,0,.54.67.69.69,0,0,0,.64.12,2,2,0,0,0,.86-.8,16.27,16.27,0,0,0,1.28-1.89c.38-.66.79-1.31,1.21-2a.37.37,0,0,0,.32-.19,2.6,2.6,0,0,1,.29-.54,2.73,2.73,0,0,0,.29-.54,3,3,0,0,0,1-1.09c.26-.47.49-.87.7-1.21a.29.29,0,0,0,.06-.32l.26-.26s.07-.06.1-.06.05,0,.09-.06a1.42,1.42,0,0,0,.35-.35.94.94,0,0,1,.29-.29l.26-.09c.08,0,.17-.14.26-.35l.32-.54a1,1,0,0,1,.32-.35,1.67,1.67,0,0,0,.45-.32l.32-.32a1.3,1.3,0,0,0,.23-.32A1.54,1.54,0,0,1,150.19,32ZM136.44,29.4q.32-1,.58-2t.51-2c.08-.34.16-.67.22-1s.14-.65.23-1a4.58,4.58,0,0,1,.19-.83,2.58,2.58,0,0,0,.13-.83q.06-1,.19-1.89c.09-.62.15-1.23.19-1.82a6.48,6.48,0,0,1,.06-1,3.8,3.8,0,0,0,0-1c0-.17-.09-.39-.13-.67a.63.63,0,0,0-.38-.54.44.44,0,0,0-.61.29l-.29.74a11,11,0,0,0-.45,1.79c-.13.64-.28,1.28-.45,1.92a15.06,15.06,0,0,0-.39,1.92,19.68,19.68,0,0,0-.16,2q0,1.06,0,2a8.41,8.41,0,0,1,.06,1,8.1,8.1,0,0,0,.06,1,5.79,5.79,0,0,1,.09.93C136.11,29.12,136.23,29.36,136.44,29.4Z"/><path class="cls-1" d="M167.64,32a1.48,1.48,0,0,1,.51-.32c-.08.17-.16.34-.22.51s-.14.36-.22.58a9.38,9.38,0,0,0-.48,1.25,6.83,6.83,0,0,1-.42,1.05c-.17.3-.32.55-.45.74a4.6,4.6,0,0,0-.39.74.25.25,0,0,1-.06.19l-.13.39-.19.38c-.17.39-.35.81-.54,1.28a7.81,7.81,0,0,1-.61,1.22,5,5,0,0,0-.48.8c-.11.24-.22.48-.35.74a3.48,3.48,0,0,0-.42.64c-.11.21-.22.43-.35.64l-.51.74a5.26,5.26,0,0,0-.45.73c-.77,1-1.34,1.7-1.73,2.18s-.68.81-.89,1-.38.47-.64.77-.51.62-.76,1a8.66,8.66,0,0,1-.8.93,3.21,3.21,0,0,1-.8.61,2.44,2.44,0,0,0-.57.32c-.17.13-.36.26-.57.39a2.32,2.32,0,0,0-.48.35,1.5,1.5,0,0,1-.48.29c-.21.08-.46.17-.74.25a1.76,1.76,0,0,1-.8.07,3.47,3.47,0,0,1-.77-.22,5.35,5.35,0,0,1-.7-.35,4.61,4.61,0,0,1-1.15-1,6.65,6.65,0,0,1-.9-1.21q-.32-.7-.64-1.44c-.21-.49-.43-1-.64-1.5q-.64-1.85-1.15-3.61a15,15,0,0,1-.58-3.74c0-.47-.06-.94-.06-1.41s0-.94-.06-1.41-.09-1-.13-1.47a5.45,5.45,0,0,1,.06-1.47,6.26,6.26,0,0,1,.25-1.31,6.5,6.5,0,0,1,.51-1.18,5.13,5.13,0,0,1,1.47-2,5.13,5.13,0,0,1,2.3-.67,3.36,3.36,0,0,1,2.3.61,1.78,1.78,0,0,1,.9,1.22,1.26,1.26,0,0,1,.06.38,1.79,1.79,0,0,0,.07.45c0,.17.08.32.12.45a3.67,3.67,0,0,0,.19.45,1.64,1.64,0,0,1,0,1c-.11.3-.22.6-.35.9a3.1,3.1,0,0,0-.35.9,4.76,4.76,0,0,1-.29.89l-.35,1a4.92,4.92,0,0,1-.48,1,2.34,2.34,0,0,1-.48.57,1.47,1.47,0,0,0-.42.64.63.63,0,0,0-.06.48l.13.48a2,2,0,0,1,.06.48,2.1,2.1,0,0,0,.06.48,7.73,7.73,0,0,0,.39,2,19.36,19.36,0,0,0,.74,2q.41,1,.8,1.92c.13.34.23.66.32,1a2.18,2.18,0,0,0,.45.83l.29.29a.49.49,0,0,0,.35.16.54.54,0,0,0,.38-.19l.32-.32a10.08,10.08,0,0,0,.8-.77c.23-.25.46-.51.67-.77h.13a4.2,4.2,0,0,0,.74-.8c.19-.28.39-.58.61-.93l.38-.38a18.66,18.66,0,0,0,1.5-2l1.37-2.11c.17-.21.3-.38.38-.51a2.73,2.73,0,0,0,.25-.51,5.08,5.08,0,0,0,.39-.9,1.91,1.91,0,0,1,.45-.83c.08,0,.16-.18.22-.41a5.79,5.79,0,0,1,.23-.67h-.07a1,1,0,0,0,.19-.25v-.07a1.41,1.41,0,0,0,.26-.38.71.71,0,0,0,.07-.32.59.59,0,0,0,.1-.13.47.47,0,0,1,.09-.13l.26-.13a1.37,1.37,0,0,0,.35-.35.93.93,0,0,1,.29-.29.38.38,0,0,1,.26-.13c.09,0,.17-.11.26-.32l.32-.54a1,1,0,0,1,.32-.35,1.7,1.7,0,0,0,.45-.32l.32-.32a4.06,4.06,0,0,0,.22-.39A.86.86,0,0,1,167.64,32Zm-15.86-6.71a8.58,8.58,0,0,1-1-.45,2.29,2.29,0,0,1-.8-.71,2.4,2.4,0,0,1-.58-1.85,2.32,2.32,0,0,1,.77-1.79.77.77,0,0,1,.35-.19,1.43,1.43,0,0,0,.42-.19c.08-.09.23-.1.45,0l.51.16a2.58,2.58,0,0,1,1.66,1.09,4.15,4.15,0,0,1,.77,1.92v.19s0,.3-.13.77a1.23,1.23,0,0,1-.64,1,1.44,1.44,0,0,1-.77.19.27.27,0,0,0-.26,0,.57.57,0,0,1-.26.06A.4.4,0,0,1,151.78,25.31Zm-1,9.66a2.58,2.58,0,0,0,.42-1.12,11.67,11.67,0,0,1,.22-1.18,2.45,2.45,0,0,1,.06-.48,1.37,1.37,0,0,0,0-.51.59.59,0,0,0-.16-.35c-.09-.09-.23-.09-.45,0a1.06,1.06,0,0,0-.61.8,6,6,0,0,0-.1,1.05v.73a3.58,3.58,0,0,0,.06.67.92.92,0,0,0,.32.77Z"/><path class="cls-1" d="M183.69,32a1.48,1.48,0,0,1,.51-.32,3.92,3.92,0,0,0-.22.54,4.44,4.44,0,0,1-.22.54,9.07,9.07,0,0,0-.48,1.25,6.44,6.44,0,0,1-.42,1.05c-.17.3-.32.55-.45.74a4.5,4.5,0,0,0-.38.74,5.4,5.4,0,0,0-.19.54c0,.15-.11.33-.19.54l-.58.77v.13a3,3,0,0,0-.48.76,4.36,4.36,0,0,1-.48.83A18.44,18.44,0,0,0,179,41.94a2.41,2.41,0,0,0-.26.57s-.06,0-.06,0,0,0-.06,0a5.81,5.81,0,0,1-.29.61,5,5,0,0,1-.35.54,3.87,3.87,0,0,0-.45.38l-.38.38a1.41,1.41,0,0,0-.19.22,1.37,1.37,0,0,1-.19.23l-.13.13-.06.06c-.3.17-.55.33-.77.48a4.92,4.92,0,0,0-.64.54l-.06.06-.06.07-.19.19a7.28,7.28,0,0,1-.8.61l-.86.54a2.7,2.7,0,0,0-.38.32,2.8,2.8,0,0,1-.38.32,5.93,5.93,0,0,1-1,.32l-.77.57c-.38.13-.78.25-1.18.35s-.82.2-1.25.29a4,4,0,0,1-1.82,0q-.93-.22-1.82-.35l-.19-.19-.13-.13a.45.45,0,0,0-.13-.1.47.47,0,0,1-.13-.1,2.15,2.15,0,0,0-1.28-.7,4.24,4.24,0,0,0-.38-.45,1.69,1.69,0,0,1-.32-.45c-.39-.55-.74-1.1-1.06-1.63a8.3,8.3,0,0,1-.8-1.82,9.1,9.1,0,0,1-.45-1.85c-.08-.64-.17-1.28-.25-1.92a11.56,11.56,0,0,1,1-5.69q.32-.76.73-1.53c.28-.51.56-1,.86-1.47a13.23,13.23,0,0,1,1-1.57,5.32,5.32,0,0,1,1.31-1.25,14.1,14.1,0,0,1,1.73-1,5.86,5.86,0,0,1,1.92-.57,3.48,3.48,0,0,1,1.05,0c.36.06.71.12,1.05.16a5.85,5.85,0,0,0,1,.16,5.71,5.71,0,0,1,1,.16l.77.32a1.8,1.8,0,0,1,.7.51.6.6,0,0,1,.16.32A.57.57,0,0,0,174,29l.29.29.29.29a3.63,3.63,0,0,1,1,1.41,1.85,1.85,0,0,0,.06.32,4.76,4.76,0,0,1,.1.51,1.57,1.57,0,0,1,0,.42c0,.11-.1.14-.23.1a4.72,4.72,0,0,0,0,.57c0,.17-.09.3-.35.39a.78.78,0,0,1-.9-.39l-.38-.64a1.5,1.5,0,0,0-.51-.51,1.52,1.52,0,0,0-.61-.22,2.35,2.35,0,0,1-.61-.16,1.78,1.78,0,0,0-1-.19,8.15,8.15,0,0,0-1,.19,1.45,1.45,0,0,1-.42.19.62.62,0,0,0-.35.25,2.76,2.76,0,0,0-.22.42,2.62,2.62,0,0,1-.22.42l-.48,1a9,9,0,0,0-.41,1q-.19.51-.32,1t-.26,1q-.26,1.09-.45,2.11a11.14,11.14,0,0,0-.19,2.11v1.28a.54.54,0,0,0,.19.38,2.3,2.3,0,0,0,.38,1.66,1.76,1.76,0,0,0,1.4.83,7.11,7.11,0,0,0,3.33-.83l.13-.1a.41.41,0,0,0,.13-.1c.26-.17.49-.34.7-.51a8.47,8.47,0,0,0,.64-.58,5.23,5.23,0,0,0,.7-.35,3.32,3.32,0,0,0,.7-.54l.06-.06a7.12,7.12,0,0,0,2.37-2.11.37.37,0,0,0,.32-.19,3.8,3.8,0,0,1,.29-.57c.11-.17.2-.34.29-.51a3,3,0,0,0,1-1.09c.26-.47.49-.87.7-1.21a.71.71,0,0,0,.06-.32.44.44,0,0,0,.1-.13.55.55,0,0,1,.1-.13l.25-.13A1.36,1.36,0,0,0,181,35a.88.88,0,0,1,.29-.29.37.37,0,0,1,.25-.13c.09,0,.17-.11.26-.32l.32-.54a1.07,1.07,0,0,1,.32-.35,1.65,1.65,0,0,0,.45-.32l.32-.32a3.55,3.55,0,0,0,.22-.39A.8.8,0,0,1,183.69,32Z"/><path class="cls-1" d="M121.16,66a.32.32,0,0,1,.2.3l-.2.4-.2.4a1.13,1.13,0,0,1-.4.4,2.2,2.2,0,0,1-.7.6q-.6.3-1.11.5a3.5,3.5,0,0,1-1.11.2,2,2,0,0,1-.8.05,2.13,2.13,0,0,1-1.11-.55A5,5,0,0,1,114.63,67a5.94,5.94,0,0,1-.7-1.21c-.2-.33-.49-.75-.85-1.26a7.09,7.09,0,0,0-1.61-1.51,10,10,0,0,0-2.06-1.16q-1-.4-1.71-.6l-1.31.91-3,1.91a27.27,27.27,0,0,1-3,1.71,5.88,5.88,0,0,1-1.31.5,4,4,0,0,1-1.31-.8A2.49,2.49,0,0,1,96.88,64c-.1-.64.07-1,.5-1.21a1.82,1.82,0,0,1,1.26-.05,5.62,5.62,0,0,0,1.71.2,7.23,7.23,0,0,0,2.61-.6A6.3,6.3,0,0,0,105.32,61a4.33,4.33,0,0,0,1.06-1.31,2.81,2.81,0,0,1,1.11-.45,3.62,3.62,0,0,1,1.86.25,8.85,8.85,0,0,1,2.16,1.11q1,.7,1.81,1.31t1.81,1.41a15.1,15.1,0,0,0,2.31,1.51,11.1,11.1,0,0,0,2.21,1A5.82,5.82,0,0,0,121.16,66ZM114.53,77.7a2.39,2.39,0,0,1-.8.5,2.16,2.16,0,0,1-1.11.1,4.29,4.29,0,0,1-1-.1,3.64,3.64,0,0,0-1.11-.3,8.68,8.68,0,0,0-2.06-.2,14.84,14.84,0,0,0-2.46.2q-1.21.1-2,.2a1.93,1.93,0,0,1-.6.1,1.46,1.46,0,0,1-.75,0,3.39,3.39,0,0,1-.55-.2,1.17,1.17,0,0,0-.2-.3,1.09,1.09,0,0,1,0-1.11,2.58,2.58,0,0,1,1.41-1.06,7.61,7.61,0,0,1,2-.55,6.55,6.55,0,0,0,1.11-.2V73h-.5a3,3,0,0,1-1.11,0,3.5,3.5,0,0,1-1-.1c-.27-.13-.4-.27-.4-.4a1.3,1.3,0,0,1,0-1,1.45,1.45,0,0,1,.8-.9,4,4,0,0,1,1.31-.5,6.18,6.18,0,0,0,.91-.2.59.59,0,0,0,.1-.4,1.19,1.19,0,0,0-.15-.5.85.85,0,0,0-.35-.4.91.91,0,0,0-.4-.1,3.49,3.49,0,0,1-1.11-.2,1.53,1.53,0,0,1-1-.8,1,1,0,0,1,.1-1.11,1.64,1.64,0,0,1,.8-.7l1.41-.1a16.19,16.19,0,0,1,3.27-.1,6.43,6.43,0,0,1,2.87.6c.47.27.6.6.4,1a5,5,0,0,1-.25.75.76.76,0,0,1-.55.45,1.87,1.87,0,0,1-.85.2h-.75a1.56,1.56,0,0,0-.2.25,2.13,2.13,0,0,0-.2.4.53.53,0,0,0,0,.45.45.45,0,0,0,.25.25,1.92,1.92,0,0,0,.65,0,4.28,4.28,0,0,1,1.11.05,1,1,0,0,1,.7.45,1.19,1.19,0,0,1,.15.75,3.1,3.1,0,0,1-.25.85,1.24,1.24,0,0,1-.7.65,1.72,1.72,0,0,1-1,.1l-.9-.2a2.12,2.12,0,0,1-.05.35,4.1,4.1,0,0,0-.05.75,1.24,1.24,0,0,0,0,.7.23.23,0,0,0,.15.25,7.18,7.18,0,0,0,1.11.1A15.69,15.69,0,0,1,113,75a3.32,3.32,0,0,1,1.86.85A1,1,0,0,1,115,77C114.89,77.19,114.73,77.43,114.53,77.7Z"/><path class="cls-1" d="M132.37,69.46a.53.53,0,0,1-.45,0l-.45-.2a.91.91,0,0,0-.4-.1c0,.2,0,.77-.1,1.71s-.05,2.31-.15,3.92a15.28,15.28,0,0,1-.55,3.62q-.3,1.11-.6,1.11c-.2-.07-.39-.47-.55-1.21a20.8,20.8,0,0,1-.35-3.42q0-2.21.05-3.52t.05-1.51q-.2-.1-1,.3t-2,.91q-1.31.5-1.71,0a1.79,1.79,0,0,1-.2-1.51,1.19,1.19,0,0,1,.7-.7,14.91,14.91,0,0,1,1.81-.7,3.47,3.47,0,0,0,1.71-1.26,3.76,3.76,0,0,0,.7-1.76,2.45,2.45,0,0,0-.75-.1h-.85a2.7,2.7,0,0,0-.6.05.65.65,0,0,0-.3.15.41.41,0,0,1-.3.1c-.07.07-.15.07-.25,0a.73.73,0,0,1-.25-.3l-.2-.4a2.27,2.27,0,0,1,.05-1.06,1.65,1.65,0,0,1,1-1,7.25,7.25,0,0,1,1.51-.4c.4-.07.74-.13,1-.2v-.7a7.64,7.64,0,0,1,.1-1.16,1.68,1.68,0,0,1,.4-1,1.11,1.11,0,0,1,.55-.55.73.73,0,0,1,.75.15,1.42,1.42,0,0,1,.4,1,4,4,0,0,1-.05,1.46,3.55,3.55,0,0,0-.15.75c.2,0,.47,0,.8-.05a3.43,3.43,0,0,1,1,.05.69.69,0,0,1,.6.5,1.78,1.78,0,0,1-.2.8,3.81,3.81,0,0,0-.2.5,3.25,3.25,0,0,1-.5.4,2.46,2.46,0,0,1-.6.3,1.64,1.64,0,0,1-.5.1A4.11,4.11,0,0,0,131,66a1.38,1.38,0,0,0,.7,1.06,2.11,2.11,0,0,1,.85.85,2,2,0,0,1,.15,1.21A.65.65,0,0,1,132.37,69.46Zm16.19,6a3.91,3.91,0,0,1-.8,2,3.09,3.09,0,0,1-2.21,1.21,4,4,0,0,1-2.41-.8,5,5,0,0,0-1.21-.6,11.4,11.4,0,0,0-2.51-.2,19.61,19.61,0,0,0-3.42.3l-3.12.7a1.48,1.48,0,0,1-1.21-.1c-.4-.2-.44-.6-.1-1.21a2.89,2.89,0,0,1,1.56-1.31,3.12,3.12,0,0,1,1.86-.2q.1-.5.2-1.56t.1-2.56q0-1.51-.1-2.51A10,10,0,0,1,135,67a7.26,7.26,0,0,1-.1-1.21,1.24,1.24,0,0,1,.5-1,1.62,1.62,0,0,1,1.06-.45,4.34,4.34,0,0,1,1.16.05,1.32,1.32,0,0,1,.05-.3,1.9,1.9,0,0,0,.05-.45.49.49,0,0,1,.1-.35v-.4l-.7.05A10.87,10.87,0,0,1,136,63a1.8,1.8,0,0,1-1.11-.3.59.59,0,0,1-.3-.5.57.57,0,0,1,.25-.65,2.85,2.85,0,0,1,1.26-.35h1.46a1.19,1.19,0,0,0,.65-.1,3.75,3.75,0,0,1,.7-1.21,1.18,1.18,0,0,1,1-.6.78.78,0,0,1,.8.55,3.69,3.69,0,0,1,.2,1.26h3.82a1,1,0,0,1,.7.2q.2.2,0,.6a3.53,3.53,0,0,1-.7.7,1.23,1.23,0,0,1-.6.3c-.13,0-.45,0-1-.1a11.41,11.41,0,0,0-1.91-.05,2.9,2.9,0,0,0-1.66.45,1.12,1.12,0,0,0-.6.91,4.39,4.39,0,0,1,.7.1,7.53,7.53,0,0,0,1.41.1,4.69,4.69,0,0,0,1.41,0c.33,0,.54-.07.6-.2a3.85,3.85,0,0,1,.7-.15.75.75,0,0,1,.7.35,1.24,1.24,0,0,1,.2.7,7.21,7.21,0,0,1-.2.8,6.28,6.28,0,0,0-.4,1.91,10.74,10.74,0,0,0-.1,2.61V73a13.37,13.37,0,0,1-.1,1.81q.4,0,.91.05L146,75h1.21l1-.2C148.46,74.79,148.56,75,148.56,75.5Zm-10.66-.7a12.15,12.15,0,0,0,1.51-.1H141a6.86,6.86,0,0,1,1.11-.1v-.4a.92.92,0,0,0-.1-.4.47.47,0,0,0-.25-.25.85.85,0,0,0-.25-.05,1.68,1.68,0,0,0-.5.1H138.2a11.46,11.46,0,0,1-1.41.1,3.17,3.17,0,0,1-.05.5,3.07,3.07,0,0,0-.05.5c0,.14,0,.2.05.2s.05,0,.05-.1Zm.1-7.34a11.42,11.42,0,0,0,1.41-.1c.54,0,1,0,1.41-.05s.77-.05,1.11-.05a.85.85,0,0,0-.5-.7,3.26,3.26,0,0,0-1.71-.25q-1.21.05-1.91.15l-.8.1v.9Zm3.52,1.41a5.55,5.55,0,0,0-1.81-.2l-2.72.2v1a16.75,16.75,0,0,0,1.76-.1q1-.1,1.81-.15a3.64,3.64,0,0,0,1.06-.15.41.41,0,0,0,.3-.1C142,69.16,141.86,69,141.52,68.86Zm-3.47,3.27q.65,0,1.51-.15l1.51-.15q.65,0,1.06-.05c.07-.27-.08-.5-.45-.7a3.59,3.59,0,0,0-1.86-.2,16.18,16.18,0,0,0-2,.25,7.85,7.85,0,0,1-.8.15v.91C137.26,72.18,137.62,72.16,138.05,72.13Z"/><path class="cls-1" d="M175,62.39a.09.09,0,0,1,.1.1.44.44,0,0,1,0,.4,4.17,4.17,0,0,1-.2.5,2.86,2.86,0,0,1-.35.5q-.25.3-.75.8a7.57,7.57,0,0,1-1,.85l-.9.65a4.2,4.2,0,0,1-1,.1,2.48,2.48,0,0,1-1.41-.6,5.87,5.87,0,0,1-1.46-1.31A11.14,11.14,0,0,1,167,62.9,7.6,7.6,0,0,0,164.08,60a4,4,0,0,0-3.92.6A44.36,44.36,0,0,0,156,63.2a7.52,7.52,0,0,1-3.32,1.31,1.61,1.61,0,0,1-1.31-.4,2.07,2.07,0,0,1-.7-1.66,1.53,1.53,0,0,1,.7-1.46,1.75,1.75,0,0,1,1.31-.25,6.22,6.22,0,0,0,1.71.1,8.23,8.23,0,0,0,2.61-.65,8.09,8.09,0,0,0,2.31-1.31,5.57,5.57,0,0,0,1.11-1.21,3,3,0,0,1,2.61-.5,11.37,11.37,0,0,1,4.12,2.11,23.38,23.38,0,0,0,4.43,2.61,4.59,4.59,0,0,0,3.22.5Zm-5,14q.3.2,0,1a3.91,3.91,0,0,1-.9,1.41,5.74,5.74,0,0,1-1,.7q-1-.1-2.31-.3t-3.07-.3a14.76,14.76,0,0,0-3.07.1,13.62,13.62,0,0,0-2.21.5,2.62,2.62,0,0,1-1.21.1q-.6,0-.5-.6a1.87,1.87,0,0,1,.4-1.21,6.16,6.16,0,0,1,.75-1,3.18,3.18,0,0,0,.6-1.46,11,11,0,0,0,.15-2.92,15.49,15.49,0,0,0-.4-3q-.3-1.16-.4-1.66a3.65,3.65,0,0,1-.2-1.71,2.09,2.09,0,0,1,1.31-1.31,4.46,4.46,0,0,1,2-.5h1.61a.9.9,0,0,0-.1-.75,1.3,1.3,0,0,0-.8-.35.72.72,0,0,1-.7-.4,1.26,1.26,0,0,1-.1-.91,1.27,1.27,0,0,1,.6-.6,3.21,3.21,0,0,1,1.46-.1,8.73,8.73,0,0,1,1.61.3,7.38,7.38,0,0,1,.85.3.67.67,0,0,1,.3.3.72.72,0,0,1-.1.6,5.28,5.28,0,0,1-.5.8,9.92,9.92,0,0,1-.7.8h1.11q.9.1,2.21.3a3,3,0,0,1,1.61.8.91.91,0,0,1,0,1l-.4.6a4.92,4.92,0,0,0-.35,1c-.1.4-.19.77-.25,1.11s-.13.64-.2.91a2.47,2.47,0,0,1-1.16,1.76,6.1,6.1,0,0,1-2.92,1,18.84,18.84,0,0,1-2.82.15c-.64,0-1,0-1,.15a4.4,4.4,0,0,1-.1.8,9.63,9.63,0,0,0-.15,1.21,1.25,1.25,0,0,0,.25,1,.87.87,0,0,0,.6.3q.7.1,1.86.2t2.87.2a14.65,14.65,0,0,0,2.77-.05,10,10,0,0,0,1.76-.35A1.07,1.07,0,0,1,170,76.37Zm-4.63-8.55v-.9q-.5,0-1.36.05t-2,.05q-1,.1-1.86.1h-1.36v.3a1,1,0,0,1,.1.45,1,1,0,0,0,.1.45v.2a5.42,5.42,0,0,1,1.31-.3,15.38,15.38,0,0,1,1.86-.1h3.17Zm-1.21,1.76a15.57,15.57,0,0,1-1.86.25q-1.16.1-1.91.1a5.12,5.12,0,0,0-1.16.1v1.41q.5-.1,1.21-.3l1.66-.25a10.82,10.82,0,0,1,1.66-.15H165a.9.9,0,0,0,.1-.4.9.9,0,0,1,.1-.4v-.7A3.06,3.06,0,0,1,164.18,69.59ZM168,73.46c.17.14.2.35.1.65a1.54,1.54,0,0,1-.55.75,1.22,1.22,0,0,1-.6.3,4.76,4.76,0,0,1-1.16.2,19.54,19.54,0,0,1-2.56.05,6.82,6.82,0,0,1-2.41-.4c-.54-.23-.8-.49-.8-.75s.27-.39.8-.55a11,11,0,0,1,2.41-.35h4.12A.72.72,0,0,1,168,73.46Z"/><path class="cls-1" d="M199.6,71q-.1,1.51-.35,3.72a11.65,11.65,0,0,1-.75,3.32c-.34.67-.7,1-1.11,1H197a1.09,1.09,0,0,1-.4-.5,2,2,0,0,1-.2-.91V75.38a17.58,17.58,0,0,1-.1-2.11,16.55,16.55,0,0,1,.1-2,10.71,10.71,0,0,1,.2-1.21,8.37,8.37,0,0,0-2.51-.7,24.75,24.75,0,0,0-4.73-.2,37.89,37.89,0,0,0-4.73.4,16.24,16.24,0,0,0-2.51.7.62.62,0,0,0-.15.25,1.5,1.5,0,0,0-.05.45,3.58,3.58,0,0,0,.05.6,1.76,1.76,0,0,0,.15.5,8.13,8.13,0,0,0,.15,1.16,6.52,6.52,0,0,1-.05,2.11,4.85,4.85,0,0,1-.6,1.86,2,2,0,0,1-.91.7q-.4,0-.6-.9a10.49,10.49,0,0,1-.4-2.82q-.2-2-.3-3.22A9,9,0,0,0,179,69.3a4.24,4.24,0,0,1-.25-.85,3.33,3.33,0,0,1-.05-1,1.15,1.15,0,0,1,.25-.7,1,1,0,0,1,.35-.25,2.63,2.63,0,0,0,.35-.15,3.22,3.22,0,0,1,.5.05.91.91,0,0,1,.5.25,1.5,1.5,0,0,0,.4.3l1.11-.3a9.93,9.93,0,0,1,1.66-.3,17.2,17.2,0,0,1,1.76-.1h1.11q0-.3-.05-1.66t.05-3.37a7,7,0,0,1,.6-2.92,1.43,1.43,0,0,1,1.21-.9q.7,0,1.21,1a6.38,6.38,0,0,1,.5,2.87,22.58,22.58,0,0,1-.2,3.32,14.38,14.38,0,0,0-.2,1.71h1.61c.6,0,1.37,0,2.31.1s1.71.27,2.31.4,1.17.37,1.51.5a2.78,2.78,0,0,1,1-.45,1,1,0,0,1,1,.25,1.37,1.37,0,0,1,.4,1,2.24,2.24,0,0,1-.2,1A18.19,18.19,0,0,0,199.6,71ZM183.2,64.12q-.4,0-.9-1.11a4.1,4.1,0,0,1-.5-1.81q0-.8.4-1a.67.67,0,0,1,.6.1,1.93,1.93,0,0,1,.6,1.11q.2.9.3,1.51v.7C183.64,64,183.47,64.19,183.2,64.12Zm10.66,9.15a9.87,9.87,0,0,1-.35,1.51,1.65,1.65,0,0,1-.75,1.06,1.76,1.76,0,0,1-1.11.15,11.45,11.45,0,0,0-1.21-.2,11.63,11.63,0,0,0-1.91-.05,9,9,0,0,0-1.86.25,3.59,3.59,0,0,0-1.11.45,1.15,1.15,0,0,1-.65.25.55.55,0,0,1-.55-.35,1,1,0,0,1-.05-.7c.07-.23.13-.45.2-.65a8.58,8.58,0,0,0-.1-1.11,7.11,7.11,0,0,1-.25-1.56,1.15,1.15,0,0,1,.45-1.16,2.39,2.39,0,0,1,1.11-.4,14.84,14.84,0,0,1,1.51-.15l2.11-.15a19.67,19.67,0,0,1,2.11.1c.6.07,1.07.14,1.41.2a2.51,2.51,0,0,1,.8-.25.58.58,0,0,1,.6.25.85.85,0,0,1,.1.7c-.07.27-.13.5-.2.7A3.66,3.66,0,0,0,193.87,73.27Zm-2.11.1a1.62,1.62,0,0,1,.05-.4,1.51,1.51,0,0,0,.05-.35v-.25h-2.31a14,14,0,0,0-1.71.1q-.9.1-1.51.2a.76.76,0,0,0,.1.3,1.6,1.6,0,0,0,.05.4,1.7,1.7,0,0,1,.05.4.4.4,0,0,0,.1.3,3,3,0,0,1,.9-.35,8.53,8.53,0,0,1,1.56-.2,12.19,12.19,0,0,1,1.56,0c.4,0,.74.05,1,.05A.29.29,0,0,1,191.75,73.37Zm3.67-10.11a5.64,5.64,0,0,1-1.21.75,2.7,2.7,0,0,1-1.06.3.9.9,0,0,1-.6,0,.5.5,0,0,1-.55-.5,2.25,2.25,0,0,1,.7-1.41A15.31,15.31,0,0,1,194.07,61l.7-.65a2.51,2.51,0,0,1,1.06-.6,1,1,0,0,1,1.11.3,1.12,1.12,0,0,1,.2,1.21,3.22,3.22,0,0,1-.75,1.21Q196,62.81,195.42,63.26Z"/></svg>